<svg id="Layer_1" data-name="Layer 1" xmlns="http://www.w3.org/2000/svg" viewBox="0 0 638.17 152.36"><defs><style>.cls-1{fill:#485785;}.cls-2{fill:#ffed08;}.cls-3{fill:#f42c7d;}.cls-4{fill:#d7dcf0;}.cls-5{fill:#390075;}.cls-6{fill:#ffdc9c;}.cls-7{opacity:0.3;}.cls-8{opacity:0.55;}.cls-9{fill:#fff;}</style></defs><path class="cls-1" d="M449.12,613.32c-21.06-1.29-39.27-7.69-52.77-24.19-23-28.07-16.36-82.47,35.77-93.94,22.27-4.89,43.62-1.64,61.72,13.35,17.87,14.8,23.21,34.52,18.9,56.67-4.16,21.39-17.62,35.54-37.95,42.61C466.59,610.68,458.13,613.32,449.12,613.32ZM424.84,552.7c0,16.28,8.86,27,22.75,27.45,13.21.48,22.36-6.91,25-20.2,3.05-15.17-3-28.52-14.93-33C440.32,520.5,424.82,532.63,424.84,552.7Z" transform="translate(-222.01 -460.96)"/><path class="cls-1" d="M735.84,610.18H698.16V597.65C691.1,606.73,681.86,611,671,611.9c-10.55.9-20.94.26-30.71-4.62-13-6.51-20-18.15-19.12-32.31.95-14.49,8.74-24.1,22.33-28.09,8.51-2.5,17.57-3.48,26.46-4.23,8.08-.69,16.27-.15,24.34-.15,1.18-7.31-3-13.75-10.93-16.39-11.86-4-23.36-1.67-34.56,2.83-3.05,1.22-5.88,3-9.29,4.8L633,520.51c-2.21-4.45-4.42-8.9-6.79-13.69,8.92-6.11,18.7-9.1,28.81-11.12,16.9-3.38,33.73-3.68,50.23,2.11,18.08,6.34,28.36,19.53,29.53,38.26,1.33,21.24.79,42.61,1.05,63.92C735.87,603.28,735.84,606.58,735.84,610.18ZM694.79,562.9c-9.08.68-18,.94-26.78,2.18-4.9.69-7.52,4.73-7.65,9.76-.12,4.73,2,8.39,6.49,10.24a21.52,21.52,0,0,0,21.72-2.38C695,578.2,696.64,571.74,694.79,562.9Z" transform="translate(-222.01 -460.96)"/><path class="cls-1" d="M856.22,503.13,844.63,529.3c-8.91-2.35-17.24-5.16-25.81-6.6-5.62-.94-11.57,0-17.36.31a7.39,7.39,0,0,0-4.62,1.61c-1.71,1.73-3.86,4.09-3.83,6.16,0,1.72,2.65,4.39,4.59,4.91,6.73,1.8,13.66,2.83,20.51,4.19,5.06,1,10.14,1.91,15.15,3.11C849,546.74,858.71,556.5,860,569.63c1.53,15.78-5.77,28.27-20.5,35.48-15.92,7.78-32.88,8.36-49.85,6.27-10.28-1.27-20.32-4.71-30.4-7.41-2.31-.62-4.36-2.22-6.87-3.54,4.08-9.34,8-18.29,12-27.46,14.43,8.17,29.71,11.22,45.86,10.14,2.47-.17,5.29-.24,7.24-1.47,2.12-1.33,4.53-3.88,4.71-6.07.13-1.64-2.79-4.62-4.83-5.14-7.24-1.86-14.68-2.89-22-4.3-5.22-1-10.52-1.77-15.63-3.2-12.73-3.58-22.35-10.7-24.48-24.64-2.25-14.7,2.79-26.6,15.43-34.77,14.38-9.28,30.52-10.81,47.06-9.92C830.92,494.31,843.76,496.74,856.22,503.13Z" transform="translate(-222.01 -460.96)"/><path class="cls-1" d="M537.38,529.81h-16.2V499.69h16V469.9h40.67v29.53h25.94v30.35H578.06c0,14.16-.39,27.77.15,41.35.31,7.65,7.21,11.39,16.07,9.62,2.57-.51,5-1.63,8.11-2.67l10.12,28.42c-6.19,1.82-12,4.71-17.83,5-9.53.42-19.42.32-28.67-1.74-16.68-3.72-26.9-16.41-27.93-33.47-.79-13.27-.51-26.62-.69-39.93C537.36,534.36,537.38,532.4,537.38,529.81Z" transform="translate(-222.01 -460.96)"/><path class="cls-1" d="M222,610.1V533.79c1.36,1.42,2.27,2.23,3,3.17,11.83,15,23.71,30,35.36,45.17a13.45,13.45,0,0,1,2.48,7.15c.33,6.8.12,13.62.12,20.82Z" transform="translate(-222.01 -460.96)"/><path class="cls-1" d="M363.25,461.85v76.32c-1.35-1.42-2.27-2.23-3-3.17-11.82-15-23.7-30-35.35-45.17a13.45,13.45,0,0,1-2.48-7.16c-.34-6.79-.12-13.61-.12-20.82Z" transform="translate(-222.01 -460.96)"/><path class="cls-2" d="M314.58,586.36l-88.39-98.31a9.54,9.54,0,0,1,1.54-14.26l12-9a11.83,11.83,0,0,1,15.62,1.4l88.38,98.31.45,1.08,13.34,32.25,3.87,9.33c1,2.47-2,4.72-4.43,3.32l-9.27-5.27-32-18.23Z" transform="translate(-222.01 -460.96)"/><path class="cls-3" d="M234.82,497.65l-8.63-9.6a9.54,9.54,0,0,1,1.54-14.26l12-9a11.83,11.83,0,0,1,15.62,1.4l8.63,9.6Z" transform="translate(-222.01 -460.96)"/><polygon class="cls-4" points="20.38 45.11 12.81 36.69 41.96 14.81 49.53 23.23 20.38 45.11"/><path class="cls-5" d="M234.44,497.62l.21-.16,29.37-22,7.91,8.8-.21.16-29.37,22Zm29.5-21.5L235.2,497.68l7.23,8,28.74-21.55Z" transform="translate(-222.01 -460.96)"/><path class="cls-6" d="M315.65,587c2.58-3.17-1.89-7.18,1.58-10.37,3.67-3.19,8.12,1.34,11.71-1.42s-.34-7.54,3.8-10.21c4.09-2.49,7.53,2.29,11.44.6l13.34,32.25,3.87,9.33c1,2.47-2,4.72-4.43,3.32l-9.27-5.27Z" transform="translate(-222.01 -460.96)"/><path class="cls-5" d="M315.26,587l.18-.21c1.13-1.4.81-3,.47-4.66-.4-1.95-.81-4,1.13-5.74s4.2-1.32,6.32-.9c1.94.37,3.77.72,5.4-.54s1.66-2.93,1.63-4.74c0-2-.06-4,2.19-5.48s4.38-.64,6.4.1c1.73.63,3.36,1.23,5.09.48l.26-.11,17.31,41.83a2.82,2.82,0,0,1-1,3.38,3.51,3.51,0,0,1-3.83.23ZM344,565.9c-1.84.67-3.57,0-5.25-.58-2-.72-3.84-1.4-5.89-.14s-2,3.12-2,5.06.05,3.76-1.83,5.13-3.87,1-5.85.64-4-.79-5.83.77-1.37,3.39-1,5.3c.33,1.63.67,3.3-.4,4.82l41.06,23.36a2.88,2.88,0,0,0,3.2-.19,2.32,2.32,0,0,0,.83-2.83Z" transform="translate(-222.01 -460.96)"/><g class="cls-7"><path class="cls-5" d="M314.58,586.36l-88.39-98.31a9.54,9.54,0,0,1,1.54-14.26l7.72-5.79a9.54,9.54,0,0,0-1.54,14.26l87.58,97.41a7.52,7.52,0,0,0,1.88,1.52h0l36.24,29.53a3.17,3.17,0,0,1-2.65-.25l-9.27-5.27-32-18.23Z" transform="translate(-222.01 -460.96)"/></g><g class="cls-8"><path class="cls-9" d="M358.15,610.87a2.47,2.47,0,0,0-.19-1.14l-3.87-9.34-13.34-32.24-.45-1.09-88.38-98.3a11.82,11.82,0,0,0-15.62-1.4l3.43-2.58a11.83,11.83,0,0,1,15.62,1.4l88.38,98.31.45,1.08,13.34,32.25,3.87,9.33C362.24,609.23,360.26,611.14,358.15,610.87Z" transform="translate(-222.01 -460.96)"/></g><path class="cls-1" d="M222.28,484a11.13,11.13,0,0,1,4.39-11.42l12-9a13.62,13.62,0,0,1,18,1.61L345,563.52a1.63,1.63,0,0,1,.27.43l17.65,42.67a4,4,0,0,1-1.41,4.82,5,5,0,0,1-5.45.32L313.7,587.65a1.49,1.49,0,0,1-.41-.33L224.91,489A11.25,11.25,0,0,1,222.28,484Zm120,81.23-88.21-98.11A10.06,10.06,0,0,0,240.79,466l-12,9a8.13,8.13,0,0,0-1.3,12.13l88.21,98.11,42.15,24a1.42,1.42,0,0,0,1.58-.09,1.15,1.15,0,0,0,.41-1.4Zm-27.69,21.1Z" transform="translate(-222.01 -460.96)"/><path class="cls-1" d="M314,587.29a1.45,1.45,0,0,1,.29-1.22c.74-.91.57-2,.23-3.67-.43-2-1-4.61,1.51-6.87s5.35-1.69,7.6-1.25c2,.38,3.15.56,4.21-.26s1.16-1.9,1.13-3.75c0-2.1-.06-4.7,2.79-6.54s5.59-.82,7.71-.05c1.74.64,2.86,1,4,.52a1.74,1.74,0,0,1,2.22.72,1.47,1.47,0,0,1-.79,2c-2.49,1.07-4.79.23-6.64-.44-2-.74-3.22-1.11-4.6-.27s-1.36,2-1.34,4,.07,4.38-2.34,6.14-4.93,1.29-7,.88-3.38-.59-4.58.45-1,2.2-.57,4.15c.36,1.78.82,4-.82,6a1.78,1.78,0,0,1-2.33.32A1.52,1.52,0,0,1,314,587.29Z" transform="translate(-222.01 -460.96)"/><path class="cls-1" d="M347.69,605.2a14.51,14.51,0,0,1,9.83-7.38l3.87,9.33c1,2.47-2,4.72-4.43,3.32Z" transform="translate(-222.01 -460.96)"/><path class="cls-1" d="M233.19,498a1.75,1.75,0,0,1,0-.46,1.54,1.54,0,0,1,.6-1l29.16-21.87a1.8,1.8,0,0,1,1.22-.33,1.66,1.66,0,0,1,1.12.54l7.58,8.42a1.44,1.44,0,0,1-.23,2.14l-29.16,21.87a1.78,1.78,0,0,1-2.35-.21l-7.57-8.42A1.51,1.51,0,0,1,233.19,498Zm30.56-20-26.59,19.94,5.46,6.07L269.21,484Z" transform="translate(-222.01 -460.96)"/><path class="cls-1" d="M346.06,605.51a1.41,1.41,0,0,1,.13-1,16.2,16.2,0,0,1,10.9-8.18,1.68,1.68,0,0,1,2,1.08,1.51,1.51,0,0,1-1.18,1.86,12.83,12.83,0,0,0-8.77,6.58,1.74,1.74,0,0,1-2.23.69A1.52,1.52,0,0,1,346.06,605.51Z" transform="translate(-222.01 -460.96)"/></svg>